<svg width="4819" height="689" viewBox="0 0 4819 689" fill="none" xmlns="http://www.w3.org/2000/svg">
<g clip-path="url(#clip0_242_224)">
<path d="M5659.61 -383.1L4275.52 -753.97C4197.26 -774.94 4116.08 -728.07 4095.1 -649.81L3885.41 132.78C3864.44 211.04 3911.31 292.22 3989.57 313.2L5373.66 684.07C5451.92 705.04 5533.1 658.16 5554.07 579.91L5763.77 -202.68C5784.74 -280.95 5737.87 -362.13 5659.61 -383.1Z" fill="#009C46"/>
<path d="M4595.49 -1028.87L2419.17 -445.73C2362.44 -430.53 2328.45 -371.66 2343.66 -314.93L2578.56 561.74C2593.76 618.47 2652.63 652.46 2709.36 637.25L4885.67 54.12C4942.4 38.92 4976.39 -19.9401 4961.18 -76.6801L4726.28 -953.35C4711.08 -1010.09 4652.22 -1044.07 4595.49 -1028.87Z" fill="#036496"/>
<path d="M2456.24 -531.42L977.23 -927.72C893.6 -950.13 806.85 -900.04 784.44 -816.41L560.36 19.86C537.95 103.49 588.04 190.24 671.67 212.65L2150.68 608.95C2234.31 631.36 2321.06 581.27 2343.47 497.65L2567.55 -338.62C2589.96 -422.26 2539.87 -509.02 2456.24 -531.42Z" fill="#B8292F"/>
<path d="M-906.319 -607.53L769.26 -1001.41C864 -1023.68 959.74 -964.39 982.01 -869.65L1204.72 77.7599C1226.99 172.5 1167.7 268.24 1072.96 290.51L-602.629 684.39C-697.369 706.66 -793.109 647.37 -815.379 552.63L-1038.09 -394.78C-1060.35 -489.53 -1001.06 -585.26 -906.319 -607.53Z" fill="#FFCC03"/>
</g>
<defs>
<clipPath id="clip0_242_224">
<rect width="4819" height="689" fill="white" transform="matrix(-1 0 0 -1 4819 689)"/>
</clipPath>
</defs>
</svg>
