<svg width="4819" height="573" viewBox="0 0 4819 573" fill="none" xmlns="http://www.w3.org/2000/svg">
<g clip-path="url(#clip0_242_3)">
<mask id="mask0_242_3" style="mask-type:luminance" maskUnits="userSpaceOnUse" x="0" y="-1837" width="4820" height="2410">
<path d="M0.25 572.93L4819.15 572.93V-1836.52L0.25 -1836.52V572.93Z" fill="white"/>
</mask>
<g mask="url(#mask0_242_3)">
<path d="M3008.4 23.73L1137.91 285.2C1089.14 292.02 1054.83 337.49 1061.64 386.25L1166.97 1139.73C1173.79 1188.49 1219.26 1222.81 1268.02 1215.99L3138.52 954.53C3187.28 947.71 3221.6 902.24 3214.79 853.48L3109.46 100C3102.64 51.23 3057.17 16.91 3008.4 23.73Z" fill="#FFCC03"/>
</g>
<mask id="mask1_242_3" style="mask-type:luminance" maskUnits="userSpaceOnUse" x="0" y="-1837" width="4820" height="2410">
<path d="M0.25 572.93L4819.15 572.93V-1836.52L0.25 -1836.52V572.93Z" fill="white"/>
</mask>
<g mask="url(#mask1_242_3)">
<path d="M1392.62 339.76L152.82 7.5498C82.7198 -11.2302 9.98999 30.7598 -8.79004 100.86L-196.62 801.87C-215.4 871.97 -173.42 944.7 -103.32 963.48L1136.48 1295.69C1206.58 1314.47 1279.3 1272.49 1298.09 1202.38L1485.93 501.36C1504.71 431.26 1462.72 358.54 1392.62 339.76Z" fill="#036496"/>
</g>
<mask id="mask2_242_3" style="mask-type:luminance" maskUnits="userSpaceOnUse" x="0" y="-1837" width="4820" height="2410">
<path d="M0.25 572.93L4819.15 572.93V-1836.52L0.25 -1836.52V572.93Z" fill="white"/>
</mask>
<g mask="url(#mask2_242_3)">
<path d="M-1707.03 334.05L-302.46 3.88C-223.04 -14.79 -142.79 34.9099 -124.12 114.33L62.5698 908.51C81.2398 987.93 31.5401 1068.18 -47.8799 1086.85L-1452.46 1417.02C-1531.88 1435.69 -1612.13 1385.98 -1630.8 1306.57L-1817.49 512.39C-1836.16 432.97 -1786.45 352.72 -1707.03 334.05Z" fill="#FFCC03"/>
</g>
<mask id="mask3_242_3" style="mask-type:luminance" maskUnits="userSpaceOnUse" x="0" y="-1837" width="4820" height="2410">
<path d="M0.25 572.93L4819.15 572.93V-1836.52L0.25 -1836.52V572.93Z" fill="white"/>
</mask>
<g mask="url(#mask3_242_3)">
<path d="M3237.08 79.0901L4847.73 227.57C4938.8 235.97 5006.44 317.34 4998.05 408.42L4914.1 1319.12C4905.7 1410.19 4824.33 1477.83 4733.26 1469.44L3122.6 1320.95C3031.53 1312.56 2963.89 1231.18 2972.28 1140.11L3056.23 229.41C3064.63 138.34 3146.01 70.7001 3237.08 79.0901Z" fill="#F28F22"/>
</g>
</g>
<defs>
<clipPath id="clip0_242_3">
<rect width="4819" height="573" fill="white" transform="matrix(-1 0 0 -1 4819 573)"/>
</clipPath>
</defs>
</svg>
